<svg xmlns="http://www.w3.org/2000/svg" version="1.1" width="395px" height="150px" style="shape-rendering:geometricPrecision; text-rendering:geometricPrecision; image-rendering:optimizeQuality; fill-rule:evenodd; clip-rule:evenodd" xmlns:xlink="http://www.w3.org/1999/xlink">
<g><path style="opacity:0.961" fill="#fefffe" d="M 8.5,12.5 C 19.5,12.5 30.5,12.5 41.5,12.5C 41.3334,44.1684 41.5,75.8351 42,107.5C 44.7099,122.955 53.8766,129.122 69.5,126C 76.6667,124.167 81.1667,119.667 83,112.5C 84.4418,79.1952 84.9418,45.8619 84.5,12.5C 89.5,12.5 94.5,12.5 99.5,12.5C 99.9653,46.5409 99.4653,80.5409 98,114.5C 95.1667,125.333 88.3333,132.167 77.5,135C 61.3971,138.499 46.0638,136.499 31.5,129C 23.1355,121.769 18.9688,112.602 19,101.5C 18.6667,74.5 18.3333,47.5 18,20.5C 15.7632,17.2419 12.5966,15.5752 8.5,15.5C 8.5,14.5 8.5,13.5 8.5,12.5 Z"/></g>
<g><path style="opacity:0.941" fill="#fefffe" d="M 133.5,12.5 C 142.418,12.1828 151.251,12.5161 160,13.5C 175.308,54.428 190.808,95.2613 206.5,136C 199.167,136.667 191.833,136.667 184.5,136C 178.27,118.478 171.937,100.978 165.5,83.5C 155.606,82.1823 145.773,82.1823 136,83.5C 129.526,101.089 123.36,118.756 117.5,136.5C 112.156,136.666 106.823,136.499 101.5,136C 115.793,98.2879 129.793,60.4546 143.5,22.5C 141.93,17.7105 138.597,15.3772 133.5,15.5C 133.5,14.5 133.5,13.5 133.5,12.5 Z M 149.5,41.5 C 154.267,51.4553 158.267,61.7887 161.5,72.5C 154.167,72.5 146.833,72.5 139.5,72.5C 142.833,62.1667 146.167,51.8333 149.5,41.5 Z"/></g>
<g><path style="opacity:0.96" fill="#fefffe" d="M 204.5,12.5 C 220.17,12.3334 235.837,12.5001 251.5,13C 268.943,13.1418 283.443,19.6418 295,32.5C 300.142,40.3882 303.142,49.0548 304,58.5C 305.328,73.6807 304.328,88.6807 301,103.5C 294.361,122.134 281.195,132.634 261.5,135C 246.203,136.359 230.869,136.859 215.5,136.5C 215.667,98.8319 215.5,61.1652 215,23.5C 213.752,18.1038 210.252,15.4372 204.5,15.5C 204.5,14.5 204.5,13.5 204.5,12.5 Z M 238.5,22.5 C 260.836,20.2352 274.669,29.9018 280,51.5C 283.836,70.9665 282.169,89.9665 275,108.5C 267.136,122.848 254.969,128.848 238.5,126.5C 238.5,91.8333 238.5,57.1667 238.5,22.5 Z"/></g>
<g><path style="opacity:0.96" fill="#fefffe" d="M 308.5,12.5 C 334.167,12.5 359.833,12.5 385.5,12.5C 385.5,15.8333 385.5,19.1667 385.5,22.5C 371.76,22.0542 358.093,22.5542 344.5,24C 343.874,24.7504 343.374,25.5838 343,26.5C 342.5,38.4954 342.333,50.4954 342.5,62.5C 353.5,62.5 364.5,62.5 375.5,62.5C 375.5,66.1667 375.5,69.8333 375.5,73.5C 364.5,73.5 353.5,73.5 342.5,73.5C 342.333,87.8372 342.5,102.171 343,116.5C 343.958,121.79 347.124,124.624 352.5,125C 363.495,125.5 374.495,125.667 385.5,125.5C 385.5,129.167 385.5,132.833 385.5,136.5C 363.5,136.5 341.5,136.5 319.5,136.5C 319.667,98.1652 319.5,59.8319 319,21.5C 316.862,17.2427 313.362,15.2427 308.5,15.5C 308.5,14.5 308.5,13.5 308.5,12.5 Z"/></g>
</svg>